<?xml version="1.0" encoding="utf-8"?>
<!-- Generator: Adobe Illustrator 19.0.0, SVG Export Plug-In . SVG Version: 6.00 Build 0)  -->
<svg version="1.1" id="Layer_1" xmlns="http://www.w3.org/2000/svg" xmlns:xlink="http://www.w3.org/1999/xlink" x="0px" y="0px"
	 viewBox="0 0 1000 1000" style="enable-background:new 0 0 1000 1000;" xml:space="preserve">
<style type="text/css">
	.st0{fill:none;stroke:#000000;stroke-width:10;stroke-miterlimit:10;}
</style>
<g id="XMLID_18_">
	<g id="XMLID_15_">
		<rect id="XMLID_3_" x="52.4" y="309.3" class="st0" width="895.2" height="183.3"/>
		<rect id="XMLID_4_" x="52.4" y="562.5" class="st0" width="895.2" height="94.3"/>
	</g>
	<g id="XMLID_2_">
		<g id="XMLID_7_">
			<polygon id="XMLID_8_" points="196.8,637.3 247.7,637.3 228.6,562.5 178.6,562.5 			"/>
			<rect id="XMLID_22_" x="89.7" y="562.5" width="47.1" height="74.8"/>
			<path id="XMLID_25_" d="M238,444.9v-45.4c0-22.6-5.4-40.2-16.2-52.8c-12.3-14.5-31.6-21.7-57.8-21.7H89.7v167.7h131.2
				C232.3,479,238,463.1,238,444.9z M192.1,445.9c0,7.5-2.6,13.9-7.9,19.2c-5.2,5.3-11.6,8-19.1,8h-28.4v-100h28.4
				c17.9,0,26.9,9.1,26.9,27.2V445.9z"/>
			<polygon id="XMLID_26_" points="264.2,637.3 398.4,637.3 398.4,589.9 311.4,589.9 311.4,562.5 264.2,562.5 			"/>
			<polygon id="XMLID_27_" points="374.9,457.3 311.4,457.3 311.4,372.1 398.4,372.1 398.4,324.7 264.2,324.7 264.2,492.6 
				374.9,492.6 			"/>
			<path id="XMLID_28_" d="M509.1,563.5c0,7.3-2.6,13.7-7.7,19.1c-5.2,5.4-11.5,8.1-18.9,8.1H454v-28.2h-47.1v74.8h74
				c20.4,0,37.9-7.3,52.4-21.9c14.5-14.6,21.7-32.2,21.7-52.8v0h-45.9V563.5z"/>
			<path id="XMLID_29_" d="M454,372.8h28.4c7.3,0,13.6,2.7,18.8,8c5.2,5.3,7.9,11.7,7.9,19.2v92.6H555v-93.4
				c0-20.4-7.2-38-21.6-52.6c-14.4-14.6-31.9-21.9-52.5-21.9h-74v167.9H454V372.8z"/>
			<rect id="XMLID_30_" x="672.4" y="324.9" width="49.1" height="167.7"/>
			<path id="XMLID_31_" d="M672.4,566c0,7.5-2.6,13.8-7.9,19.1c-5.2,5.2-11.6,7.9-19.1,7.9s-13.9-2.6-19.2-7.9
				c-5.3-5.2-8-11.6-8-19.1v-3.5h-46.1v4c0,20.6,7.2,38.1,21.7,52.6c14.5,14.5,32.1,21.7,52.8,21.7c20.6,0,38.2-7.1,52.8-21.4
				c14.6-14.3,21.9-31.9,21.9-52.8v-4h-49.1V566z"/>
			<rect id="XMLID_32_" x="572.2" y="324.9" width="46.1" height="167.7"/>
			<polygon id="XMLID_33_" points="859.7,637.3 910.3,637.3 881.1,562.5 832.5,562.5 			"/>
			<polygon id="XMLID_34_" points="849,480.3 910.3,324.9 858.2,324.9 823.6,421.4 788.7,324.9 736.6,324.9 797.9,480.3 
				793.1,492.6 853.8,492.6 			"/>
			<polygon id="XMLID_35_" points="736.6,637.3 787.2,637.3 814.6,562.5 765.8,562.5 			"/>
		</g>
		<g id="XMLID_5_">
			<g id="XMLID_1_">
				<path id="XMLID_19_" d="M285.3,517.1c-3.2,0-5.2,1.2-5.2,3.4c0,7,17.4,3.3,17.3,14.9c0,5.8-5.1,9.3-12.1,9.3
					c-5.1,0-9.8-2.1-13.2-5.1l2.3-4.7c3.3,3,7.5,4.7,10.9,4.7c3.8,0,6-1.4,6-3.9c0-7.2-17.4-3.2-17.4-14.6c0-5.5,4.7-9,11.7-9
					c4.2,0,8.3,1.3,11.3,3.3l-2.3,4.8C291.3,518,287.8,517.1,285.3,517.1z"/>
				<path id="XMLID_21_" d="M363.3,528.3c0,9.2-7.5,16.3-17.1,16.3c-9.6,0-17.1-7.1-17.1-16.3c0-9.2,7.5-16.2,17.1-16.2
					C355.8,512.1,363.3,519.1,363.3,528.3z M334.7,528.3c0,6.4,5.3,11.5,11.6,11.5s11.5-5.1,11.5-11.5s-5.2-11.4-11.5-11.4
					C339.9,517,334.7,521.9,334.7,528.3z"/>
				<path id="XMLID_38_" d="M418.8,512.2l0,4.9h-16.1v9.3h14.6v4.8h-14.6v13.2h-5.4v-32.2H418.8z"/>
				<path id="XMLID_40_" d="M473.6,512.2v4.9h-10.2v27.3H458v-27.3h-10.2v-4.9H473.6z"/>
				<path id="XMLID_42_" d="M508.1,512.2l7.8,26.2l7.8-26.2h5.3l7.8,26.2l7.8-26.2h5.6l-10.8,32.2h-5.6l-7.6-25.1l-7.7,25.1h-5.6
					l-10.7-32.2H508.1z"/>
				<path id="XMLID_44_" d="M600.6,537.1h-16.2l-3.1,7.3h-5.7l14.2-32.2h5.6l14.1,32.2h-5.8L600.6,537.1z M598.5,532.3l-6.1-14.3
					l-6.1,14.3H598.5z"/>
				<path id="XMLID_47_" d="M662.2,544.4l-5.9-9.8c-0.5,0-1,0-1.5,0h-7.6v9.7h-5.4v-32.2h13.1c8.2,0,13,4,13,11
					c0,5.2-2.4,8.8-6.7,10.4l7.2,10.8H662.2z M654.9,529.8c5,0,7.8-2.1,7.8-6.5c0-4.2-2.9-6.3-7.8-6.3h-7.6v12.7H654.9z"/>
				<path id="XMLID_50_" d="M726.1,512.2v4.9h-17.6v8.7h15.7v4.8h-15.7v8.9h18.1v4.9h-23.6v-32.2H726.1z"/>
			</g>
			<g id="XMLID_10_">
				<g id="XMLID_11_">
					<polygon id="XMLID_12_" points="238.8,515.2 153.4,515.2 142.1,525.1 238.8,525.1 					"/>
					<polygon id="XMLID_13_" points="238.8,542.5 153.4,542.5 142.1,532.6 238.8,532.6 					"/>
				</g>
				<g id="XMLID_14_">
					<polygon id="XMLID_16_" points="761.2,515.2 846.6,515.2 857.9,525.1 761.2,525.1 					"/>
					<polygon id="XMLID_17_" points="761.2,542.5 846.6,542.5 857.9,532.6 761.2,532.6 					"/>
				</g>
			</g>
		</g>
	</g>
</g>
</svg>
