<svg xmlns="http://www.w3.org/2000/svg" xmlns:xlink="http://www.w3.org/1999/xlink" version="1.1" style="" xml:space="preserve" width="895" height="348"><rect id="backgroundrect" width="100%" height="100%" x="0" y="0" fill="none" stroke="none"/>
<style type="text/css">
	.st0{fill:none;stroke:#000000;stroke-width:10;stroke-miterlimit:10;}
</style>

<g class="currentLayer" style=""><title>Layer 1</title><g id="XMLID_18_" class="">
	<g id="XMLID_15_">
		<rect id="XMLID_3_" x="0" y="0" class="st0" width="895.2000122070312" height="183.3000030517578"/>
		<rect id="XMLID_4_" x="0" y="253.20001220703125" class="st0" width="895.2000122070312" height="94.30000305175781"/>
	</g>
	<g id="XMLID_2_">
		<g id="XMLID_7_">
			<polygon id="XMLID_8_" points="144.4000015258789,328 195.29999542236328,328 176.20000457763672,253.20001220703125 126.20000457763672,253.20001220703125 "/>
			<rect id="XMLID_22_" x="37.29999542236328" y="253.20001220703125" width="47.099998474121094" height="74.80000305175781"/>
			<path id="XMLID_25_" d="M185.5999984741211,135.60001220703123 v-45.4 c0,-22.6 -5.4,-40.2 -16.2,-52.8 c-12.3,-14.5 -31.6,-21.7 -57.8,-21.7 H37.2999984741211 v167.7 h131.2 C179.8999984741211,169.70001220703125 185.5999984741211,153.80001220703127 185.5999984741211,135.60001220703123 zM139.6999984741211,136.60001220703123 c0,7.5 -2.6,13.9 -7.9,19.2 c-5.2,5.3 -11.6,8 -19.1,8 h-28.4 v-100 h28.4 c17.9,0 26.9,9.1 26.9,27.2 V136.60001220703123 z"/>
			<polygon id="XMLID_26_" points="211.80001068115234,328 345.99999237060547,328 345.99999237060547,280.60003662109375 258.99999237060547,280.60003662109375 258.99999237060547,253.20001220703125 211.80001068115234,253.20001220703125 "/>
			<polygon id="XMLID_27_" points="322.49999237060547,148 258.99999237060547,148 258.99999237060547,62.800018310546875 345.99999237060547,62.800018310546875 345.99999237060547,15.4000244140625 211.80001068115234,15.4000244140625 211.80001068115234,183.30001831054688 322.49999237060547,183.30001831054688 "/>
			<path id="XMLID_28_" d="M456.6999984741211,254.20001220703125 c0,7.3 -2.6,13.7 -7.7,19.1 c-5.2,5.4 -11.5,8.1 -18.9,8.1 H401.5999984741211 v-28.2 h-47.1 v74.8 h74 c20.4,0 37.9,-7.3 52.4,-21.9 c14.5,-14.6 21.7,-32.2 21.7,-52.8 v0 h-45.9 V254.20001220703125 z"/>
			<path id="XMLID_29_" d="M401.5999984741211,63.50001220703126 h28.4 c7.3,0 13.6,2.7 18.8,8 c5.2,5.3 7.9,11.7 7.9,19.2 v92.6 H502.5999984741211 v-93.4 c0,-20.4 -7.2,-38 -21.6,-52.6 c-14.4,-14.6 -31.9,-21.9 -52.5,-21.9 h-74 v167.9 H401.5999984741211 V63.50001220703126 z"/>
			<rect id="XMLID_30_" x="620.0000228881836" y="15.600006103515625" width="49.099998474121094" height="167.6999969482422"/>
			<path id="XMLID_31_" d="M619.9999984741211,256.70001220703125 c0,7.5 -2.6,13.8 -7.9,19.1 c-5.2,5.2 -11.6,7.9 -19.1,7.9 s-13.9,-2.6 -19.2,-7.9 c-5.3,-5.2 -8,-11.6 -8,-19.1 v-3.5 h-46.1 v4 c0,20.6 7.2,38.1 21.7,52.6 c14.5,14.5 32.1,21.7 52.8,21.7 c20.6,0 38.2,-7.1 52.8,-21.4 c14.6,-14.3 21.9,-31.9 21.9,-52.8 v-4 h-49.1 V256.70001220703125 z"/>
			<rect id="XMLID_32_" x="519.8000106811523" y="15.600006103515625" width="46.099998474121094" height="167.6999969482422"/>
			<polygon id="XMLID_33_" points="807.3000106811523,328 857.8999862670898,328 828.6999740600586,253.20001220703125 780.0999984741211,253.20001220703125 "/>
			<polygon id="XMLID_34_" points="796.5999984741211,171 857.8999862670898,15.600006103515625 805.8000106811523,15.600006103515625 771.1999740600586,112.10000610351562 736.3000106811523,15.600006103515625 684.1999740600586,15.600006103515625 745.5000228881836,171 740.6999740600586,183.30001831054688 801.3999862670898,183.30001831054688 "/>
			<polygon id="XMLID_35_" points="684.1999740600586,328 734.8000106811523,328 762.1999740600586,253.20001220703125 713.3999862670898,253.20001220703125 "/>
		</g>
		<g id="XMLID_5_">
			<g id="XMLID_1_">
				<path id="XMLID_19_" d="M232.8999984741211,207.80001220703127 c-3.2,0 -5.2,1.2 -5.2,3.4 c0,7 17.4,3.3 17.3,14.9 c0,5.8 -5.1,9.3 -12.1,9.3 c-5.1,0 -9.8,-2.1 -13.2,-5.1 l2.3,-4.7 c3.3,3 7.5,4.7 10.9,4.7 c3.8,0 6,-1.4 6,-3.9 c0,-7.2 -17.4,-3.2 -17.4,-14.6 c0,-5.5 4.7,-9 11.7,-9 c4.2,0 8.3,1.3 11.3,3.3 l-2.3,4.8 C238.8999984741211,208.70001220703125 235.3999984741211,207.80001220703127 232.8999984741211,207.80001220703127 z"/>
				<path id="XMLID_21_" d="M310.8999984741211,219.0000122070312 c0,9.2 -7.5,16.3 -17.1,16.3 c-9.6,0 -17.1,-7.1 -17.1,-16.3 c0,-9.2 7.5,-16.2 17.1,-16.2 C303.3999984741211,202.80001220703127 310.8999984741211,209.80001220703127 310.8999984741211,219.0000122070312 zM282.2999984741211,219.0000122070312 c0,6.4 5.3,11.5 11.6,11.5 s11.5,-5.1 11.5,-11.5 s-5.2,-11.4 -11.5,-11.4 C287.49999847412107,207.70001220703125 282.2999984741211,212.60001220703123 282.2999984741211,219.0000122070312 z"/>
				<path id="XMLID_38_" d="M366.3999984741211,202.9000122070313 l0,4.9 h-16.1 v9.3 h14.6 v4.8 h-14.6 v13.2 h-5.4 v-32.2 H366.3999984741211 z"/>
				<path id="XMLID_40_" d="M421.1999984741211,202.9000122070313 v4.9 h-10.2 v27.3 H405.5999984741211 v-27.3 h-10.2 v-4.9 H421.1999984741211 z"/>
				<path id="XMLID_42_" d="M455.6999984741211,202.9000122070313 l7.8,26.2 l7.8,-26.2 h5.3 l7.8,26.2 l7.8,-26.2 h5.6 l-10.8,32.2 h-5.6 l-7.6,-25.1 l-7.7,25.1 h-5.6 l-10.7,-32.2 H455.6999984741211 z"/>
				<path id="XMLID_44_" d="M548.1999984741211,227.80001220703127 h-16.2 l-3.1,7.3 h-5.7 l14.2,-32.2 h5.6 l14.1,32.2 h-5.8 L548.1999984741211,227.80001220703127 zM546.0999984741211,223.0000122070312 l-6.1,-14.3 l-6.1,14.3 H546.0999984741211 z"/>
				<path id="XMLID_47_" d="M609.7999984741211,235.10001220703123 l-5.9,-9.8 c-0.5,0 -1,0 -1.5,0 h-7.6 v9.7 h-5.4 v-32.2 h13.1 c8.2,0 13,4 13,11 c0,5.2 -2.4,8.8 -6.7,10.4 l7.2,10.8 H609.7999984741211 zM602.4999984741211,220.5000122070312 c5,0 7.8,-2.1 7.8,-6.5 c0,-4.2 -2.9,-6.3 -7.8,-6.3 h-7.6 v12.7 H602.4999984741211 z"/>
				<path id="XMLID_50_" d="M673.6999984741211,202.9000122070313 v4.9 h-17.6 v8.7 h15.7 v4.8 h-15.7 v8.9 h18.1 v4.9 h-23.6 v-32.2 H673.6999984741211 z"/>
			</g>
			<g id="XMLID_10_">
				<g id="XMLID_11_">
					<polygon id="XMLID_12_" points="186.4000015258789,205.9000244140625 100.99999237060547,205.9000244140625 89.70000457763672,215.79998779296875 186.4000015258789,215.79998779296875 "/>
					<polygon id="XMLID_13_" points="186.4000015258789,233.20001220703125 100.99999237060547,233.20001220703125 89.70000457763672,223.29998779296875 186.4000015258789,223.29998779296875 "/>
				</g>
				<g id="XMLID_14_">
					<polygon id="XMLID_16_" points="708.8000106811523,205.9000244140625 794.1999740600586,205.9000244140625 805.5000228881836,215.79998779296875 708.8000106811523,215.79998779296875 "/>
					<polygon id="XMLID_17_" points="708.8000106811523,233.20001220703125 794.1999740600586,233.20001220703125 805.5000228881836,223.29998779296875 708.8000106811523,223.29998779296875 "/>
				</g>
			</g>
		</g>
	</g>
</g></g></svg>